<svg xmlns="http://www.w3.org/2000/svg" xmlns:xlink="http://www.w3.org/1999/xlink" viewBox="0 0 1097.79 343.3" height="210px" width="670px"><defs><style>.cls-1{fill:none;}.cls-2{isolation:isolate;}.cls-3{fill:#101828;}.cls-4{fill:#ff4f12;}.cls-5{clip-path:url(#clip-path);}.cls-6{mix-blend-mode:multiply;}.cls-7{clip-path:url(#clip-path-2);}.cls-8{clip-path:url(#clip-path-3);}.cls-9{fill:#7b939b;}</style><clipPath id="clip-path"><path class="cls-1" d="M12.69,314.38a16.9,16.9,0,0,0-5,12c0,7.9,5.95,16.94,16.07,16.94H163.88L73.82,253.25Z"/></clipPath><clipPath id="clip-path-2"><rect class="cls-1" x="-51.05" y="196.21" width="211.34" height="188.33"/></clipPath><clipPath id="clip-path-3"><rect class="cls-1" x="-51.05" y="196.21" width="211.34" height="188.33"/></clipPath></defs><title>RTK-DC_RGB</title><g class="cls-2"><g id="Слой_1" data-name="Слой 1"><polygon class="cls-3" points="913.62 152.6 890.62 152.6 863.14 180.38 863.14 152.6 843.69 152.6 843.69 229.16 863.14 229.16 863.14 197.51 891.08 229.16 914.54 229.16 878.42 188.1 913.62 152.6"/><path class="cls-3" d="M297.06,121.11H248V229.16h20.37V191.5h28.71c24.39,0,40.44-12.51,40.44-35.2s-16.05-35.19-40.44-35.19m-.62,52.17H268.35v-34h28.09c14.2,0,20.69,6.79,20.69,17s-6.49,17-20.69,17"/><path class="cls-3" d="M383.49,150.44c-21,0-41.83,13.58-41.83,40.44s20.84,40.44,41.83,40.44,41.83-13.58,41.83-40.44-20.83-40.44-41.83-40.44m0,62.66c-11.42,0-22.07-8.17-22.07-22.22s10.65-22.23,22.07-22.23,22.08,8.18,22.08,22.23-10.65,22.22-22.08,22.22"/><path class="cls-3" d="M475,213.1c-11.73,0-20.38-8.48-20.38-22.22,0-13.58,8.95-22.23,20.38-22.23,6.94,0,13,3.24,17.75,10.5l16.67-9.57c-5.56-11.89-17.6-19.14-34.27-19.14-21.77,0-40.29,16.05-40.29,40.44s17.6,40.44,40.29,40.44c16.37,0,27.32-7.41,35-20.53L494.12,202c-4.63,6.49-9.57,11.11-19.14,11.11"/><path class="cls-3" d="M682.06,196c-.93,11.73-3.24,14.36-7.26,14.36a19.65,19.65,0,0,1-5.91-.8l.1,19.81a25.63,25.63,0,0,0,6.9.75c16.51,0,22.68-10.65,24.23-33.35L702,170h21.92v59h19.45V152.6H685.29Z"/><path class="cls-3" d="M626.89,150.44c-22.22,0-40.29,16.2-40.29,40.44s18.07,40.44,39.37,40.44c16.82,0,27.47-6.33,35.19-19.45l-15.43-7.71c-4.79,6-9.11,10.49-19.46,10.49-11.42,0-19.76-7.41-21-19.14h59v-6.79c0-22.39-15.43-38.28-37.35-38.28m-21.3,30.25c2.78-8.64,10.5-15.44,20.68-15.44,10.81,0,18.07,5.87,19.92,15.44Z"/><path class="cls-3" d="M794.51,150.44c-22.23,0-40.29,16.2-40.29,40.44s18.06,40.44,39.36,40.44c16.83,0,27.48-6.33,35.19-19.45l-15.43-7.71c-4.78,6-9.11,10.49-19.45,10.49-11.42,0-19.76-7.41-21-19.14h59v-6.79c0-22.39-15.43-38.28-37.35-38.28m-21.3,30.25c2.78-8.64,10.49-15.44,20.68-15.44,10.81,0,18.06,5.87,19.92,15.44Z"/><polygon class="cls-3" points="516.22 169.58 539.06 169.58 539.06 229.16 558.51 229.16 558.51 169.58 581.36 169.58 581.36 152.6 516.22 152.6 516.22 169.58"/><path class="cls-3" d="M953.16,150.44c-21,0-41.83,13.58-41.83,40.44s20.83,40.44,41.83,40.44S995,217.74,995,190.88s-20.84-40.44-41.83-40.44m0,62.67c-11.43,0-22.08-8.18-22.08-22.23s10.65-22.23,22.08-22.23,22.07,8.18,22.07,22.23-10.65,22.23-22.07,22.23"/><polygon class="cls-3" points="1072.37 152.58 1051.27 206.2 1030.15 152.58 1004.74 152.58 1004.74 229 1023.22 229 1023.22 180.63 1043.71 229 1058.81 229 1079.31 180.63 1079.31 229 1097.79 229 1097.79 152.58 1072.37 152.58"/><g id="Дескриптор"><path class="cls-3" d="M248,336.51v-41h4.92v36.67H272V295.5h4.92v36.67h3.86V343.3H276.1v-6.79Z"/><path class="cls-3" d="M288.52,336.51v-41h25.65v4.33H293.44v13.3h19.09v4.34H293.44v14.7h20.91v4.34Z"/><path class="cls-3" d="M322.49,336.51v-41h4.92v17.93h20.27V295.5h4.92v41h-4.92V317.76H327.41v18.75Z"/><path class="cls-3" d="M358.87,299.83V295.5h30.46v4.33H376.56v36.68h-4.92V299.83Z"/><path class="cls-3" d="M395.6,336.51v-41h17.22q6.49,0,10.34,3.48a13.16,13.16,0,0,1,0,18.58Q419.32,321,412.82,321h-12.3v15.47Zm4.92-36.68v16.88h12.07a10.46,10.46,0,0,0,7-2.14,9.21,9.21,0,0,0,0-12.6,10.46,10.46,0,0,0-7-2.14Z"/><path class="cls-3" d="M439.53,312.72h10.2q6.43,0,10.33,3.11a11.84,11.84,0,0,1,0,17.57q-3.88,3.11-10.33,3.11H434.61v-41h4.92Zm0,4.1v15.59H449a13.32,13.32,0,0,0,7.46-1.88,7.56,7.56,0,0,0,0-11.83,13.32,13.32,0,0,0-7.46-1.88Zm30.52,19.69v-41H475v41Z"/><path class="cls-3" d="M533.5,300.63q5.67,5.94,5.68,15.37t-5.68,15.38a19.73,19.73,0,0,1-28.24,0q-5.68-5.94-5.68-15.38t5.68-15.37a19.73,19.73,0,0,1,28.24,0Zm-24.7,27.65a14.23,14.23,0,0,0,21.15,0q4.18-4.72,4.19-12.28c0-5-1.4-9.12-4.19-12.27a14.23,14.23,0,0,0-21.15,0c-2.79,3.15-4.18,7.23-4.18,12.27S506,325.13,508.8,328.28Z"/><path class="cls-3" d="M551.77,312.72H562a16.24,16.24,0,0,1,10.13,3.13,11.41,11.41,0,0,1,0,17.52A16.18,16.18,0,0,1,562,336.51H546.85v-41H571.4v4.1H551.77Zm0,4.1v15.59h9.44a13.32,13.32,0,0,0,7.46-1.88,7.56,7.56,0,0,0,0-11.83,13.32,13.32,0,0,0-7.46-1.88Z"/><path class="cls-3" d="M583.82,336.51v-41H601q6.5,0,10.34,3.48a13.18,13.18,0,0,1,0,18.58Q607.54,321,601,321h-12.3v15.47Zm4.92-36.68v16.88H600.8a10.44,10.44,0,0,0,7-2.14,9.21,9.21,0,0,0,0-12.6,10.44,10.44,0,0,0-7-2.14Z"/><path class="cls-3" d="M612.93,336.51l16.28-41h5.16l16.28,41h-5l-4.75-12.13H622.71L618,336.51Zm17.63-32.16-6.27,15.93h14.94L633,304.35c-.55-1.41-1-2.55-1.23-3.4Z"/><path class="cls-3" d="M660.44,312.72h10.19a16.29,16.29,0,0,1,10.14,3.13,11.41,11.41,0,0,1,0,17.52,16.23,16.23,0,0,1-10.14,3.14H655.52v-41h24.54v4.1H660.44Zm0,4.1v15.59h9.43a13.38,13.38,0,0,0,7.47-1.88,7.58,7.58,0,0,0,0-11.83,13.38,13.38,0,0,0-7.47-1.88Z"/><path class="cls-3" d="M724.59,300.63q5.67,5.94,5.68,15.37t-5.68,15.38a19.73,19.73,0,0,1-28.24,0q-5.69-5.94-5.68-15.38t5.68-15.37a19.73,19.73,0,0,1,28.24,0Zm-24.7,27.65a14.23,14.23,0,0,0,21.15,0q4.19-4.72,4.19-12.28c0-5-1.4-9.12-4.19-12.27a14.23,14.23,0,0,0-21.15,0c-2.79,3.15-4.19,7.23-4.19,12.27S697.1,325.13,699.89,328.28Z"/><path class="cls-3" d="M732,299.83V295.5h30.46v4.33H749.65v36.68h-4.92V299.83Z"/><path class="cls-3" d="M768.7,336.51v-41h4.92v18.69l3.4-3.75,14.17-14.94h6.15l-14.29,15.17,15.46,25.84h-5.74l-13.23-22.15-5.92,6.27v15.88Z"/><path class="cls-3" d="M803.2,336.51v-41h4.69v34.09l1.75-3.22,19.51-30.87h5.21v41h-4.68v-34.1l-1.76,3.23-19.51,30.87Z"/><path class="cls-3" d="M861.43,336.51v6.79h-4.69V332.17h3.87a43.11,43.11,0,0,0,3.22-8.17,72.09,72.09,0,0,0,1.76-10.28l2-18.22h22.56v36.67h3.87V343.3h-4.69v-6.79Zm23.84-4.34V299.83H872.21l-1.64,14.65a69.76,69.76,0,0,1-1.7,10,52,52,0,0,1-2.87,7.73Z"/><path class="cls-3" d="M897.22,336.51l16.28-41h5.16l16.28,41h-5l-4.75-12.13H907l-4.75,12.13Zm17.63-32.16-6.27,15.93h14.94l-6.21-15.93c-.55-1.41-1-2.55-1.23-3.4Z"/><path class="cls-3" d="M939.8,336.51v-41h4.92v17.93H965V295.5h4.92v41H965V317.76H944.72v18.75Z"/><path class="cls-3" d="M979.64,336.51v-41h4.92v17.93h20.27V295.5h4.92v41h-4.92V317.76H984.56v18.75Z"/><path class="cls-3" d="M1024.39,312.72h10.2q6.44,0,10.33,3.11a11.84,11.84,0,0,1,0,17.57q-3.89,3.11-10.33,3.11h-15.12v-41h4.92Zm0,4.1v15.59h9.43a13.36,13.36,0,0,0,7.47-1.88,6.56,6.56,0,0,0,2.84-5.91c0-2.7-.94-4.67-2.84-5.92a13.36,13.36,0,0,0-7.47-1.88Zm30.52,19.69v-41h4.92v41Z"/><path class="cls-3" d="M1072.13,295.5l9,15.12,9.31-15.12h5.45L1084,314.19l13.77,22.32h-5.56l-11.13-18.16L1070,336.51h-5.62l13.89-22-11.84-19Z"/></g><g id="Фирменный_знак" data-name="Фирменный знак"><path class="cls-4" d="M163.88,343.3H23.8c-10.12,0-16.07-9-16.07-16.94a16.86,16.86,0,0,1,5-12l61.13-61.13Z"/><path class="cls-9" d="M23.8,343.3C13.22,343.3,0,334.84,0,318V129.71c0-25.44-1.29-43.35,16.88-61.52L85.06,0,206,121.11,12.69,314.38a16.9,16.9,0,0,0-5,12c0,7.9,5.95,16.94,16.07,16.94"/></g></g></g></svg>