<?xml version="1.0" encoding="utf-8"?>
<!-- Generator: Adobe Illustrator 19.2.1, SVG Export Plug-In . SVG Version: 6.00 Build 0)  -->
<svg version="1.1" id="Layer_1" xmlns:svg="http://www.w3.org/2000/svg"
	 xmlns="http://www.w3.org/2000/svg" xmlns:xlink="http://www.w3.org/1999/xlink" x="0px" y="0px" viewBox="0 0 715 160"
	 style="enable-background:new 0 0 715 160;" xml:space="preserve">
<style type="text/css">
	.st0{fill:#2B8CA1;}
</style>
<g id="g3">
	<path id="path5" class="st0" d="M189.8,70.5h38.9c2.7,0,3.2,2.8,1.1,6.2L222,89.6c-2.1,3.4-6,6.2-8.7,6.2h-38.9
		c-2.7,0-3.2-2.8-1.1-6.2l7.8-12.9C183.2,73.3,187.1,70.5,189.8,70.5"/>
	<path id="path7" class="st0" d="M375.8,10.1c14.3-1.3,31.2,9.9,22.9,24.6c-8,13.3-37,16.7-45.7,15.9c-2.8-0.3-7.3-2-7.2-6.4
		c0.1-3.1,1.8-14.1,7.8-22.7C359.9,13.1,369.1,10.5,375.8,10.1"/>
</g>
<path id="path9" class="st0" d="M465,38.6c4.4-2,4.9,2.9,4.7,4.4v11.3c0,2.2,1.8,1.1,2.8,0.8c13.4-5.7,27-14.1,44.2-13.7
	c15.3,0.3,19.9,12.4,19.8,26.4V127c0,5.2,0.4,6.4,2.9,8.4c0.8,0.4,4.9,0.8,6.4,0.8c1.7,0,1.7,1.2,1.2,2.4l-3.7,9.3
	c-0.8,1.6-2.4,2-3.7,2h-34.8c-12.1-0.4-15.8-9.5-15.6-14.1V79.5c0-11.6-18.9-12.4-18.9,3.1v47.5c0.2,2.3-0.5,5.2,5.6,5.7
	c4,0,6.9-0.4,4.9,4.4l-3,7.5c-0.7,1.4-2.4,2.3-3.9,2.2h-57.5c-1.2,0-2.2-1.4-2-2.4l4.1-10.5c0.2-0.4,0.6-1.2,1.1-1.2
	c1.9-0.1,3.2-1,3.6-6.4V67.5c0-5-4.6-4.4-8.1-4.4c-1.6,0-2.4-0.4-2-2.4l3.2-6.9c0.4-1.7,1.2-2.3,2.4-2.4
	C437.8,48.4,448.8,47.1,465,38.6"/>
<path id="path11" class="st0" d="M605.4,12.5c3.3-0.5,5.2,1.5,5.2,5.1v59.2c0.4,3.2,2.8,1,3.5,0.1L634.6,51
	c2.2-2.7,7.4-3.2,10.6-3.2h44.6c0.8,0,1.2,1,0.4,2l-5.7,7.7c-0.5,0.7-1,1.6-3.7,1.6h-2.2c-2,0.1-2.4,0.8-3.2,1.2l-22.9,25.7
	c-4.8,5.7-3.7,8.2,0.6,12.3l31.4,32.2c7,4.9,13.3,5.2,20.5,5.7c1.9,0.1,1.5,1.7,0.8,2.4l-8.1,9.3c-0.8,1.2-4.4,2-6.4,2h-31.2
	c-4,0-11.2-1.2-16.9-4.9c-11.3-9.3-18.5-21.1-29.5-31.5c-1.9-1.8-3.5-1-3.5,0.6v13.5c0,6.1,2.5,7.7,11.4,8.1c3.4,0.2,2.4,2,1.7,4
	l-3,7.7c-0.9,1.8-2,2.4-3.6,2.4h-64.4c-2,0-3.3-0.6-2.9-1.8l3.6-9.5c0.8-1.8,1.3-2.3,4-2.4c4.4-0.3,6.1-1.7,6.2-8.4v-87
	c0-3-0.7-4.1-2.8-3.8l-8.2,1.1c-2.4,0.3-2.9-1.5-1.9-3.2l5-8.4c1-1.7,2.7-1.8,4.6-2.2c16.5-2.7,33.1-7.5,43.3-11.3
	C604.1,12.9,604.7,12.6,605.4,12.5"/>
<g id="g13">
	<path id="path15" class="st0" d="M397.6,47.4c2-0.8,4.4,0.8,4,5.2v76.7c1,5.4,2.8,6.7,7.6,7.2c0,0,3.3,0.1,2.4,2.4l-3.1,8.1
		c-1.2,2.4-2,2.9-4.9,2.9h-60c-1.6-0.1-2.2-1.1-1.7-2.9l3-7.7c0.5-1,0.8-2.1,2.8-2.4c6.1-1.7,6.4-2.4,6.4-10.5V80.6
		c0-7.7-1.2-7.3-10.1-6.4c-1.6-0.4-1.5-1.9-1.2-2.4l4.4-8.4c1.2-2.4,2.8-2.4,2.8-2.4C367.1,59.5,384.1,55.3,397.6,47.4"/>
	<path id="path17" class="st0" d="M94.9,149.9c13.1,0.2,28.8,0.9,43.4-10.5c10.4-6.9,23-34.7,27.5-46.2c2.3-6,2.9-13.9,0-19.9
		c-7.9-17.9-19.4-37.9-27-46c-10.9-10-21.1-10.9-38-10.9H28.4c-3,0-6.4,0.8-7.7,2.9l-5.2,9.7c-0.8,4,4,4.4,4,4.4h7.4
		c2,0,2.4,1.6,2.4,3.2v89.7c0,4-4.5,6.4-8.2,7.2c-1.7,0.4-4,0.9-5.2,2.9l-5.2,10.1c-0.8,2,0.8,3.7,2.4,3.7
		C41.6,150,66.3,150.1,94.9,149.9 M76.5,133.3V36.9c0-2.4,0.4-3.7,2.8-4h7.1c2.5,0,6.2-0.5,8.4,3.5l24.3,42.4c2,4.4,1.4,6.3,0,9.3
		l-24.6,41.6c-3,4.1-4.4,3.3-8.1,3.6c-0.1,0,0.1,0,0,0H76.5L76.5,133.3z"/>
</g>
<path id="path19" class="st0" d="M301.6,17.2c3.1,0,4.3,1.8,3.7,3L298.8,32c0,0-0.8,2.4-6.4,2.4h-0.6c-3.7,0-6.5,0-6.9,7.3v85.1
	c0,3.7,1.6,6.7,6,6.9h8.8c14.4-0.2,14-15,17.2-27.9c0.8-2,1.2-3.2,3.7-4.4l12.7-4.4c1.7,0,3.2,0,3.7,2.8v42.8c0.4,4-3.2,7.7-8.1,7.2
	H219.5c-4,0-4.9-1.2-4-3.7l4-8.9c0,0,1.2-2.4,4.9-2.4c8.1-0.4,13.1-0.5,13.1-12.9V42.5c0-5.2-1.2-8.4-6.5-8.4c-2.1,0-4.1,0-6.2,0
	c-4,0-6.2-1.4-5.2-3.7l5.7-10.5c1.3-2.4,2.4-2.7,4.4-2.7L301.6,17.2"/>
</svg>
