<?xml version="1.0" encoding="utf-8"?>
<!-- Generator: Adobe Illustrator 19.2.1, SVG Export Plug-In . SVG Version: 6.00 Build 0)  -->
<svg version="1.1" id="Слой_1" xmlns="http://www.w3.org/2000/svg" xmlns:xlink="http://www.w3.org/1999/xlink" x="0px" y="0px"
	 viewBox="0 0 615 160" style="enable-background:new 0 0 615 160;" xml:space="preserve">
<style type="text/css">
	.st0{fill:#FFFFFF;}
</style>
<path class="st0" d="M241.5,109.6h-13.6V49.8h13.6V74h30.3V49.8h13.6v59.8h-13.6v-25h-30.3V109.6z M310.1,85.6
	c0,10.6,3.3,15,14.6,15s14.5-4.4,14.5-15V49.8h13.6v36.1c0.7,5.6-0.6,11.3-3.8,16c-5.3,5.8-13.1,8.3-24.3,8.3s-19.1-2.4-24.4-8.3
	c-3-3.2-3.7-8.5-3.7-16V49.8h13.5L310.1,85.6z M397.3,49.8l27.6,59.8h-15.1l-5.9-14.2h-28.1l-5.8,14.2h-14.5l27.4-59.8H397.3z
	 M380.1,84.7h19.3l-9.8-23L380.1,84.7z M517.1,49.8l-20,59.8h-16.7L466.6,65l-12.1,44.6H438l-21.6-59.8h14.6l15,45.9l12.6-45.9h16
	l14.5,45.9l14-45.9L517.1,49.8z M535.4,74.1h37.7v10.4h-37.8c0.1,10.7,4.7,14.6,15.4,14.6H573v10.4h-23c-7.1,0.7-14.3-1.2-20.2-5.2
	c-7-5.7-10.7-14.5-9.9-23.6c0-21.1,9.6-31,30.5-31H573v10.4h-22.3C540.9,60.2,535.9,64.7,535.4,74.1 M585.1,49.8h14.2v59.8h-14.2
	V49.8z"/>
<path class="st0" d="M95.6,119.2c0.2-0.2,0.3-0.4,0.2-0.7c-13.9-29.8-31.2-58-51.7-83.8c0,0-16.2,15.4-15.1,30.8
	c0.6,7.2,3.9,13.9,9.4,18.6c14.2,13.8,48.4,31.2,56.4,35.2C95.1,119.5,95.4,119.4,95.6,119.2 M90.3,131c-0.1-0.3-0.4-0.5-0.7-0.5v0
	l-57.1,2c6.2,11,16.7,19.6,27.5,17c7.5-1.9,24.5-13.7,30-17.7v0C90.4,131.3,90.3,131,90.3,131 M91.2,125.9c0.3-0.4-0.2-0.8-0.2-0.8
	l0,0c-25-16.9-73.7-42.9-73.7-42.9c-5.5,16.9,3.1,35.1,19.5,41.7c3.5,1.4,7.2,2.2,10.9,2.4c0.9,0.2,34,0,42.8,0
	C90.8,126.2,91.1,126.1,91.2,125.9 M95,10.1c-2.5,0.2-9.2,1.7-9.2,1.7c-8.9,2.3-15.9,8.9-18.7,17.6c-1.6,5.9-1.5,12.2,0.1,18.1
	c5,22.4,29.9,59.2,35.2,66.9c0.4,0.4,0.7,0.2,0.7,0.2c0.3-0.1,0.5-0.4,0.5-0.7h0C111.8,31.8,95,10,95,10.1 M113.9,114.6
	c0.3,0.1,0.7,0,0.8-0.3h0c5.5-7.9,30.2-44.5,35.2-66.8c1.5-5.9,1.5-12.2,0.1-18.1c-2.8-8.7-9.9-15.4-18.9-17.6c0,0-4.4-1.1-9-1.8
	c0,0-16.9,21.8-8.7,103.9h0C113.4,114.3,113.6,114.5,113.9,114.6 M127.4,130.5c0,0-0.6,0.1-0.6,0.4c-0.1,0.3,0,0.6,0.2,0.8
	c5.4,3.9,22,15.6,30,17.7c0,0,14.8,5,27.6-17L127.4,130.5L127.4,130.5z M199.8,82c0,0-48.5,26-73.6,43c-0.3,0.2-0.4,0.5-0.3,0.8
	c0,0,0.2,0.4,0.6,0.4v0l43.8-0.1c3.4-0.3,6.7-1,9.8-2.3c8.2-3.2,14.8-9.5,18.4-17.6C201.8,98.6,202.3,90,199.8,82 M121.5,119.3
	c0.2,0.2,0.5,0.2,0.8,0.1c8.2-4.1,42.2-21.4,56.3-35.1c5.5-4.7,8.9-11.5,9.4-18.7c1-16-15-30.8-15-30.8
	c-20.4,25.8-37.7,53.8-51.6,83.6h0C121.3,118.7,121.4,119,121.5,119.3"/>
</svg>
