<?xml version="1.0" encoding="utf-8"?>
<!-- Generator: Adobe Illustrator 19.2.1, SVG Export Plug-In . SVG Version: 6.00 Build 0)  -->
<svg version="1.1"
	 id="svg131" inkscape:version="0.92.0 r15299" sodipodi:docname="inspur.svg" xmlns:cc="http://creativecommons.org/ns#" xmlns:dc="http://purl.org/dc/elements/1.1/" xmlns:inkscape="http://www.inkscape.org/namespaces/inkscape" xmlns:rdf="http://www.w3.org/1999/02/22-rdf-syntax-ns#" xmlns:sodipodi="http://sodipodi.sourceforge.net/DTD/sodipodi-0.dtd" xmlns:svg="http://www.w3.org/2000/svg"
	 xmlns="http://www.w3.org/2000/svg" xmlns:xlink="http://www.w3.org/1999/xlink" x="0px" y="0px" viewBox="0 0 615 160"
	 style="enable-background:new 0 0 615 160;" xml:space="preserve">
<style type="text/css">
	.st0{fill:#125CB3;}
</style>
<sodipodi:namedview  bordercolor="#666666" borderopacity="1.0" fit-margin-bottom="0" fit-margin-left="0" fit-margin-right="0" fit-margin-top="0" id="base" inkscape:current-layer="layer1" inkscape:cx="34.062" inkscape:cy="8.2426936" inkscape:document-units="mm" inkscape:pageopacity="0.0" inkscape:pageshadow="2" inkscape:window-height="744" inkscape:window-maximized="1" inkscape:window-width="1280" inkscape:window-x="-4" inkscape:window-y="-4" inkscape:zoom="13.167166" pagecolor="#ffffff" showgrid="false" units="px">
	</sodipodi:namedview>
<g id="layer1" transform="translate(-3.4609768,-146.38787)" inkscape:groupmode="layer" inkscape:label="Layer 1">
	<path id="path36" inkscape:connector-curvature="0" class="st0" d="M498.7,265.5h28.5c3.2-20.5,6.6-41.4,10-62
		c0.7-4.1,2.5-5.9,4.3-7.3c1.8-1.4,3.6-2.1,6.3-2.1H569l10.5-17.7h-39.7c-5.9,0.1-14.5,2.5-21.2,8c-5.9,4.8-9.9,12.1-10.9,18.7
		l-9,56.1L498.7,265.5z M498.7,182.7v-6.3h1L498.7,182.7z M497.7,265.5h1.1v-6.3L497.7,265.5z M498.7,176.4v6.3l-13.4,82.8h-63.8
		c-7.5,0-13.8-3.4-17.6-8.4c-3.3-4.2-5.8-10.1-4.2-19.2c3.4-20.7,6.5-40.9,9.9-61.5h29.6l-9.7,59.7c-0.9,5-0.6,6.8,0.9,8.8
		c1.3,1.7,3.6,2.8,6,2.9c7.5-0.1,15,0,22.4,0l11.5-71.3L498.7,176.4z M342.2,265.5v-17.7h5.2c1,0,2.1-0.1,3-0.4
		c1.4-0.4,2.6-1.1,3.7-1.9c2.2-1.7,3.5-4,4-6.4c1.9-11.6,3.7-23.2,5.6-34.7c0.3-1.9,0.4-3.8-0.1-5.3c-0.3-0.9-0.9-1.8-1.5-2.5
		c-1.2-1.6-3.1-2.5-5.6-2.5h-14.3v-17.7h27.7c9.4-0.1,14.3,3.3,18.1,7.4c1.9,2,3.5,4.4,4.4,7.3c1.1,3.2,1.6,7,0.9,11.2
		c-2,12.7-4,24.7-6.1,37.5c-1.4,7.4-5.2,13-10.1,17.5c-2.2,2-4.7,3.6-7.5,5c-4.2,2.1-9.5,3.2-13.9,3.2H342.2z M342.2,176.4v17.7h-13
		l-8.7,53.6h21.7v17.7h-11.5c-5.1,0-9.2-0.6-12.7-2.1c-1.6,11-3.3,22.2-4.9,33.2l-26.9,8.5v-26l10.3-63.8l19.6-10.3l-16.4-10.9
		l3-17.7H342.2z M286.1,194.1h1.5l2.8-17.7h-4.3L286.1,194.1z M286.1,176.4v17.7h-52.9c-3.6,0-6.9,2.3-8.8,5.3
		c-0.9,1.6-1.4,3.3-1.5,5.1c-0.2,3,2.4,7.5,7.5,7.5h31.4c5.2,0,10.4,2.2,14.4,5.7c3.2,3,5.5,6.7,6.5,11.5c0.6,2.8,0.7,5.5,0.2,8.8
		c-0.4,3.2-1.6,6.9-3,9.9c-2.2,4.2-5.1,7.7-8.9,10.7c-5.3,4.1-12.6,6.8-19.1,6.8h-65.9l2.9-17.7h54.4c2.8-0.1,5.1-1.2,6.8-2.9
		c1.9-1.8,3.2-4.1,3.4-6.6c0.3-2.2-0.5-5-2.5-6.8c-1.2-1.1-3-1.7-5-1.7c-10.5-0.1-20.1,0-30.6,0c-9.2-0.1-17-5.4-20.4-13.7
		c-1.4-3.2-1.8-7-1.6-11c0.3-4.6,2.2-9.3,4.3-13.1c5.8-9.7,16.7-15.5,27.2-15.6L286.1,176.4z M286.1,279.1v26l-4.4,1.3L286.1,279.1z
		 M85,265.5v-7.2l13.1-81.9h64.7c10.8,0.1,23,9.9,21.5,24.4c-3.4,21.6-6.9,43.2-10.3,64.7h-29.5l9.9-62.1c0.6-3.1-0.3-5.2-1.6-6.8
		c-1.4-1.6-3.4-2.5-5.8-2.5h-22.3l-11.4,71.4L85,265.5z M85,183.7l1.1-7.3H85V183.7z M85,176.4v7.3l-13.2,81.8H42.4l8-50.2
		l19.7-10.3l-16.3-10.9l2.9-17.7L85,176.4z M85,258.3l-1.2,7.2H85V258.3z"/>
</g>
</svg>
