<?xml version="1.0" encoding="utf-8"?>
<!-- Generator: Adobe Illustrator 19.2.1, SVG Export Plug-In . SVG Version: 6.00 Build 0)  -->
<svg version="1.1"
	 id="svg2" inkscape:version="0.91 r13725" sodipodi:docname="lenovo.svg" xmlns:cc="http://creativecommons.org/ns#" xmlns:dc="http://purl.org/dc/elements/1.1/" xmlns:inkscape="http://www.inkscape.org/namespaces/inkscape" xmlns:rdf="http://www.w3.org/1999/02/22-rdf-syntax-ns#" xmlns:sodipodi="http://sodipodi.sourceforge.net/DTD/sodipodi-0.dtd" xmlns:svg="http://www.w3.org/2000/svg"
	 xmlns="http://www.w3.org/2000/svg" xmlns:xlink="http://www.w3.org/1999/xlink" x="0px" y="0px" viewBox="0 0 715 160"
	 style="enable-background:new 0 0 715 160;" xml:space="preserve">
<style type="text/css">
	.st0{fill:#FFFFFF;}
</style>
<sodipodi:namedview  bordercolor="#666666" borderopacity="1.0" fit-margin-bottom="5" fit-margin-left="10" fit-margin-right="10" fit-margin-top="5" id="base" inkscape:current-layer="layer1" inkscape:cx="172.36641" inkscape:cy="217.38017" inkscape:document-units="px" inkscape:pageopacity="0.0" inkscape:pageshadow="2" inkscape:window-height="1017" inkscape:window-maximized="1" inkscape:window-width="1920" inkscape:window-x="1016" inkscape:window-y="-8" inkscape:zoom="1.4" pagecolor="#ffffff" showgrid="false" units="px">
	</sodipodi:namedview>
<g id="layer1" transform="translate(-137.8498,-390.54123)" inkscape:groupmode="layer" inkscape:label="Layer 1">
	<g id="g23944" transform="matrix(1.5421564,0,0,1.5421564,148.7686,-598.51789)">
		<g id="g13605" transform="matrix(0,2.7249422,2.7249422,0,129.07155,656.47605)">
			<path id="path13607" inkscape:connector-curvature="0" class="st0" d="M4,22.1c0-2.9,1.4-6.2,4.1-8.3l0,0l0,0l-3.6,0v-7h25.3v6.9
				H15.3c-2.6,0-5.3,2-5.3,5.7c0,2.9,2,5.9,5.3,5.9h14.4v7H14C8.2,32.3,4,28.2,4,22.1"/>
		</g>
		<g id="g13609" transform="matrix(0,2.7249422,2.7249422,0,247.76404,657.32296)">
			<path id="path13611" inkscape:connector-curvature="0" class="st0" d="M4.1,38.2l17.2-6.3L4.1,25.6v-7.9l25.3,10.4v7.6L4.1,46.1
				V38.2z"/>
		</g>
		<g id="g13613" transform="matrix(0,2.7249422,2.7249422,0,57.56743,672.48808)">
			<path id="path13615" inkscape:connector-curvature="0" class="st0" d="M6.1,12.3c-1.6,1.2-2.5,3.1-2.5,5.3c0,2.5,1.4,4.4,3.5,5.4
				l5-12.1C9.6,10.6,7.6,11.3,6.1,12.3 M16.1,25.7c2.2-2.9,2.7-4.6,2.7-7.3c0-2.4-0.7-4.3-2.1-5.6L9.3,30.6c-2.7-0.4-5.2-1.4-7.1-3
				c-2.7-2.3-4.1-5.8-4.1-10c0-7.6,5.6-13.4,13.1-13.4c7.6,0,13.1,5.8,13.1,14.2c0,4.7-2.2,9.5-4.8,11.8L16.1,25.7z"/>
		</g>
		<g id="g13617" transform="matrix(0,2.7249422,2.7249422,0,39.971116,694.96858)">
			<path id="path13619" inkscape:connector-curvature="0" class="st0" d="M9.2,9.9V-5.9h-26.5v-7h32.9l0,22.8H9.2z"/>
		</g>
		<g id="g13621" transform="matrix(0,2.7249422,2.7249422,0,288.37412,668.31919)">
			<path id="path13623" inkscape:connector-curvature="0" class="st0" d="M5.6,43.7c0-3.9,2.9-6.7,7.1-6.7c4,0,7.1,3,7.1,6.8
				c0,3.9-3,6.7-7.1,6.7C8.7,50.5,5.6,47.5,5.6,43.7 M25.8,43.7c0-7.6-5.7-13.6-13.1-13.6c-7.3,0-13.1,6-13.1,13.7
				c0,7.6,5.7,13.6,13.1,13.6C20,57.4,25.8,51.4,25.8,43.7"/>
		</g>
		<g id="g13625" transform="matrix(0,2.7249422,2.7249422,0,181.94605,668.31919)">
			<path id="path13627" inkscape:connector-curvature="0" class="st0" d="M5.6,29.2c0-3.9,2.9-6.7,7.1-6.7c4,0,7.1,3,7.1,6.8
				c0,3.9-3,6.7-7.1,6.7C8.7,36,5.6,33,5.6,29.2 M25.8,29.2c0-7.6-5.7-13.6-13.1-13.6c-7.3,0-13.1,6-13.1,13.7
				c0,7.6,5.7,13.6,13.1,13.6C20,42.9,25.8,36.9,25.8,29.2"/>
		</g>
	</g>
</g>
</svg>
