<svg 
 xmlns="http://www.w3.org/2000/svg"
 xmlns:xlink="http://www.w3.org/1999/xlink"
 width="493px" height="218px">
<defs>
<linearGradient id="PSgrad_0" x1="0%" x2="100%" y1="0%" y2="0%">
  <stop offset="0%" stop-color="rgb(21,47,176)" stop-opacity="1" />
  <stop offset="100%" stop-color="rgb(18,55,131)" stop-opacity="1" />
</linearGradient>

</defs>
<path fill-rule="evenodd"  fill="rgb(21, 48, 175)"
 d="M444.189,214.357 L444.189,43.357 L402.189,43.357 L402.189,4.357 L492.789,4.357 L492.789,214.357 L444.189,214.357 ZM346.393,205.057 C332.790,213.658 317.293,217.957 299.893,217.957 C282.493,217.957 266.991,213.658 253.393,205.057 C239.790,196.460 229.140,184.010 221.443,167.707 C213.741,151.408 209.893,131.960 209.893,109.357 C209.893,86.758 213.741,67.310 221.443,51.007 C229.140,34.708 239.790,22.258 253.393,13.657 C266.991,5.060 282.493,0.757 299.893,0.757 C317.293,0.757 332.790,5.060 346.393,13.657 C359.991,22.258 370.641,34.708 378.343,51.007 C386.040,67.310 389.893,86.758 389.893,109.357 C389.893,131.960 386.040,151.408 378.343,167.707 C370.641,184.010 359.991,196.460 346.393,205.057 ZM330.043,58.357 C322.740,47.360 312.690,41.857 299.893,41.857 C287.293,41.857 277.341,47.360 270.043,58.357 C262.740,69.358 259.093,86.360 259.093,109.357 C259.093,132.358 262.740,149.360 270.043,160.357 C277.341,171.358 287.293,176.857 299.893,176.857 C312.690,176.857 322.740,171.358 330.043,160.357 C337.341,149.360 340.993,132.358 340.993,109.357 C340.993,86.360 337.341,69.358 330.043,58.357 ZM161.294,214.357 L113.894,214.357 L113.894,170.257 L0.794,170.257 L0.794,137.557 L99.794,4.357 L150.794,4.357 L58.994,130.657 L115.394,130.657 L115.394,91.357 L161.294,91.357 L161.294,130.657 L195.494,130.657 L195.494,170.257 L161.294,170.257 L161.294,214.357 Z"/>
<path fill="url(#PSgrad_0)"
 d="M444.189,214.357 L444.189,43.357 L402.189,43.357 L402.189,4.357 L492.789,4.357 L492.789,214.357 L444.189,214.357 ZM346.393,205.057 C332.790,213.658 317.293,217.957 299.893,217.957 C282.493,217.957 266.991,213.658 253.393,205.057 C239.790,196.460 229.140,184.010 221.443,167.707 C213.741,151.408 209.893,131.960 209.893,109.357 C209.893,86.758 213.741,67.310 221.443,51.007 C229.140,34.708 239.790,22.258 253.393,13.657 C266.991,5.060 282.493,0.757 299.893,0.757 C317.293,0.757 332.790,5.060 346.393,13.657 C359.991,22.258 370.641,34.708 378.343,51.007 C386.040,67.310 389.893,86.758 389.893,109.357 C389.893,131.960 386.040,151.408 378.343,167.707 C370.641,184.010 359.991,196.460 346.393,205.057 ZM330.043,58.357 C322.740,47.360 312.690,41.857 299.893,41.857 C287.293,41.857 277.341,47.360 270.043,58.357 C262.740,69.358 259.093,86.360 259.093,109.357 C259.093,132.358 262.740,149.360 270.043,160.357 C277.341,171.358 287.293,176.857 299.893,176.857 C312.690,176.857 322.740,171.358 330.043,160.357 C337.341,149.360 340.993,132.358 340.993,109.357 C340.993,86.360 337.341,69.358 330.043,58.357 ZM161.294,214.357 L113.894,214.357 L113.894,170.257 L0.794,170.257 L0.794,137.557 L99.794,4.357 L150.794,4.357 L58.994,130.657 L115.394,130.657 L115.394,91.357 L161.294,91.357 L161.294,130.657 L195.494,130.657 L195.494,170.257 L161.294,170.257 L161.294,214.357 Z"/>
</svg>