<svg 
 xmlns="http://www.w3.org/2000/svg"
 xmlns:xlink="http://www.w3.org/1999/xlink"
 width="566px" height="218px">
<defs>
<linearGradient id="PSgrad_0" x1="0%" x2="100%" y1="0%" y2="0%">
  <stop offset="0%" stop-color="rgb(21,47,176)" stop-opacity="1" />
  <stop offset="100%" stop-color="rgb(18,55,131)" stop-opacity="1" />
</linearGradient>

</defs>
<path fill-rule="evenodd"  fill="rgb(21, 48, 175)"
 d="M550.990,110.407 C560.787,121.108 565.690,134.360 565.690,150.157 C565.690,162.358 562.489,173.608 556.090,183.907 C549.687,194.210 539.937,202.460 526.840,208.657 C513.739,214.854 497.689,217.957 478.690,217.957 C463.887,217.957 449.337,216.007 435.040,212.107 C420.739,208.207 408.589,202.657 398.590,195.457 L417.490,158.257 C425.487,164.257 434.740,168.907 445.240,172.207 C455.740,175.507 466.489,177.157 477.490,177.157 C489.687,177.157 499.287,174.808 506.290,170.107 C513.289,165.410 516.790,158.758 516.790,150.157 C516.790,132.958 503.689,124.357 477.490,124.357 L455.290,124.357 L455.290,92.257 L498.490,43.357 L409.090,43.357 L409.090,4.357 L556.090,4.357 L556.090,35.857 L508.690,89.857 C527.089,92.857 541.189,99.710 550.990,110.407 ZM346.393,205.057 C332.790,213.658 317.293,217.957 299.893,217.957 C282.493,217.957 266.991,213.658 253.393,205.057 C239.790,196.460 229.140,184.010 221.443,167.707 C213.741,151.408 209.893,131.960 209.893,109.357 C209.893,86.758 213.741,67.310 221.443,51.007 C229.140,34.708 239.790,22.258 253.393,13.657 C266.991,5.060 282.493,0.757 299.893,0.757 C317.293,0.757 332.790,5.060 346.393,13.657 C359.991,22.258 370.641,34.708 378.343,51.007 C386.040,67.310 389.893,86.758 389.893,109.357 C389.893,131.960 386.040,151.408 378.343,167.707 C370.641,184.010 359.991,196.460 346.393,205.057 ZM330.043,58.357 C322.740,47.360 312.690,41.857 299.893,41.857 C287.293,41.857 277.341,47.360 270.043,58.357 C262.740,69.358 259.093,86.360 259.093,109.357 C259.093,132.358 262.740,149.360 270.043,160.357 C277.341,171.358 287.293,176.857 299.893,176.857 C312.690,176.857 322.740,171.358 330.043,160.357 C337.341,149.360 340.993,132.358 340.993,109.357 C340.993,86.360 337.341,69.358 330.043,58.357 ZM161.294,214.357 L113.894,214.357 L113.894,170.257 L0.794,170.257 L0.794,137.557 L99.794,4.357 L150.794,4.357 L58.994,130.657 L115.394,130.657 L115.394,91.357 L161.294,91.357 L161.294,130.657 L195.494,130.657 L195.494,170.257 L161.294,170.257 L161.294,214.357 Z"/>
<path fill="url(#PSgrad_0)"
 d="M550.990,110.407 C560.787,121.108 565.690,134.360 565.690,150.157 C565.690,162.358 562.489,173.608 556.090,183.907 C549.687,194.210 539.937,202.460 526.840,208.657 C513.739,214.854 497.689,217.957 478.690,217.957 C463.887,217.957 449.337,216.007 435.040,212.107 C420.739,208.207 408.589,202.657 398.590,195.457 L417.490,158.257 C425.487,164.257 434.740,168.907 445.240,172.207 C455.740,175.507 466.489,177.157 477.490,177.157 C489.687,177.157 499.287,174.808 506.290,170.107 C513.289,165.410 516.790,158.758 516.790,150.157 C516.790,132.958 503.689,124.357 477.490,124.357 L455.290,124.357 L455.290,92.257 L498.490,43.357 L409.090,43.357 L409.090,4.357 L556.090,4.357 L556.090,35.857 L508.690,89.857 C527.089,92.857 541.189,99.710 550.990,110.407 ZM346.393,205.057 C332.790,213.658 317.293,217.957 299.893,217.957 C282.493,217.957 266.991,213.658 253.393,205.057 C239.790,196.460 229.140,184.010 221.443,167.707 C213.741,151.408 209.893,131.960 209.893,109.357 C209.893,86.758 213.741,67.310 221.443,51.007 C229.140,34.708 239.790,22.258 253.393,13.657 C266.991,5.060 282.493,0.757 299.893,0.757 C317.293,0.757 332.790,5.060 346.393,13.657 C359.991,22.258 370.641,34.708 378.343,51.007 C386.040,67.310 389.893,86.758 389.893,109.357 C389.893,131.960 386.040,151.408 378.343,167.707 C370.641,184.010 359.991,196.460 346.393,205.057 ZM330.043,58.357 C322.740,47.360 312.690,41.857 299.893,41.857 C287.293,41.857 277.341,47.360 270.043,58.357 C262.740,69.358 259.093,86.360 259.093,109.357 C259.093,132.358 262.740,149.360 270.043,160.357 C277.341,171.358 287.293,176.857 299.893,176.857 C312.690,176.857 322.740,171.358 330.043,160.357 C337.341,149.360 340.993,132.358 340.993,109.357 C340.993,86.360 337.341,69.358 330.043,58.357 ZM161.294,214.357 L113.894,214.357 L113.894,170.257 L0.794,170.257 L0.794,137.557 L99.794,4.357 L150.794,4.357 L58.994,130.657 L115.394,130.657 L115.394,91.357 L161.294,91.357 L161.294,130.657 L195.494,130.657 L195.494,170.257 L161.294,170.257 L161.294,214.357 Z"/>
</svg>