<svg 
 xmlns="http://www.w3.org/2000/svg"
 xmlns:xlink="http://www.w3.org/1999/xlink"
 width="606px" height="219px">
<defs>
<linearGradient id="PSgrad_0" x1="0%" x2="100%" y1="0%" y2="0%">
  <stop offset="0%" stop-color="rgb(21,47,176)" stop-opacity="1" />
  <stop offset="100%" stop-color="rgb(18,55,131)" stop-opacity="1" />
</linearGradient>

</defs>
<path fill-rule="evenodd"  fill="#17398a"
 d="M570.921,170.385 L570.921,214.485 L523.522,214.485 L523.522,170.385 L410.422,170.385 L410.422,137.685 L509.422,4.485 L560.422,4.485 L468.621,130.785 L525.022,130.785 L525.022,91.485 L570.921,91.485 L570.921,130.785 L605.121,130.785 L605.121,170.385 L570.921,170.385 ZM345.626,205.185 C332.023,213.786 316.526,218.085 299.126,218.085 C281.726,218.085 266.224,213.786 252.626,205.185 C239.023,196.588 228.373,184.138 220.676,167.835 C212.974,151.536 209.126,132.088 209.126,109.485 C209.126,86.886 212.974,67.438 220.676,51.135 C228.373,34.836 239.023,22.386 252.626,13.785 C266.224,5.188 281.726,0.885 299.126,0.885 C316.526,0.885 332.023,5.188 345.626,13.785 C359.224,22.386 369.874,34.836 377.576,51.135 C385.273,67.438 389.126,86.886 389.126,109.485 C389.126,132.088 385.273,151.536 377.576,167.835 C369.874,184.138 359.224,196.588 345.626,205.185 ZM329.276,58.485 C321.973,47.488 311.923,41.985 299.126,41.985 C286.526,41.985 276.574,47.488 269.276,58.485 C261.973,69.486 258.326,86.488 258.326,109.485 C258.326,132.486 261.973,149.488 269.276,160.485 C276.574,171.486 286.526,176.985 299.126,176.985 C311.923,176.985 321.973,171.486 329.276,160.485 C336.574,149.488 340.226,132.486 340.226,109.485 C340.226,86.488 336.574,69.486 329.276,58.485 ZM160.527,214.485 L113.127,214.485 L113.127,170.385 L0.027,170.385 L0.027,137.685 L99.027,4.485 L150.027,4.485 L58.227,130.785 L114.627,130.785 L114.627,91.485 L160.527,91.485 L160.527,130.785 L194.727,130.785 L194.727,170.385 L160.527,170.385 L160.527,214.485 Z"/>
<path fill="url(#PSgrad_0)"
 d="M570.921,170.385 L570.921,214.485 L523.522,214.485 L523.522,170.385 L410.422,170.385 L410.422,137.685 L509.422,4.485 L560.422,4.485 L468.621,130.785 L525.022,130.785 L525.022,91.485 L570.921,91.485 L570.921,130.785 L605.121,130.785 L605.121,170.385 L570.921,170.385 ZM345.626,205.185 C332.023,213.786 316.526,218.085 299.126,218.085 C281.726,218.085 266.224,213.786 252.626,205.185 C239.023,196.588 228.373,184.138 220.676,167.835 C212.974,151.536 209.126,132.088 209.126,109.485 C209.126,86.886 212.974,67.438 220.676,51.135 C228.373,34.836 239.023,22.386 252.626,13.785 C266.224,5.188 281.726,0.885 299.126,0.885 C316.526,0.885 332.023,5.188 345.626,13.785 C359.224,22.386 369.874,34.836 377.576,51.135 C385.273,67.438 389.126,86.886 389.126,109.485 C389.126,132.088 385.273,151.536 377.576,167.835 C369.874,184.138 359.224,196.588 345.626,205.185 ZM329.276,58.485 C321.973,47.488 311.923,41.985 299.126,41.985 C286.526,41.985 276.574,47.488 269.276,58.485 C261.973,69.486 258.326,86.488 258.326,109.485 C258.326,132.486 261.973,149.488 269.276,160.485 C276.574,171.486 286.526,176.985 299.126,176.985 C311.923,176.985 321.973,171.486 329.276,160.485 C336.574,149.488 340.226,132.486 340.226,109.485 C340.226,86.488 336.574,69.486 329.276,58.485 ZM160.527,214.485 L113.127,214.485 L113.127,170.385 L0.027,170.385 L0.027,137.685 L99.027,4.485 L150.027,4.485 L58.227,130.785 L114.627,130.785 L114.627,91.485 L160.527,91.485 L160.527,130.785 L194.727,130.785 L194.727,170.385 L160.527,170.385 L160.527,214.485 Z"/>
</svg>