<svg 
 xmlns="http://www.w3.org/2000/svg"
 xmlns:xlink="http://www.w3.org/1999/xlink"
 width="572px" height="218px">
<defs>
<linearGradient id="PSgrad_0" x1="0%" x2="100%" y1="0%" y2="0%">
  <stop offset="0%" stop-color="rgb(21,47,176)" stop-opacity="1" />
  <stop offset="100%" stop-color="rgb(18,55,131)" stop-opacity="1" />
</linearGradient>

</defs>
<path fill-rule="evenodd"  fill="rgb(21, 48, 175)"
 d="M559.836,167.707 C552.134,184.010 541.484,196.460 527.886,205.057 C514.283,213.658 498.786,217.957 481.386,217.957 C463.986,217.957 448.484,213.658 434.886,205.057 C421.283,196.460 410.633,184.010 402.936,167.707 C395.234,151.408 391.386,131.960 391.386,109.357 C391.386,86.758 395.234,67.310 402.936,51.007 C410.633,34.708 421.283,22.258 434.886,13.657 C448.484,5.060 463.986,0.757 481.386,0.757 C498.786,0.757 514.283,5.060 527.886,13.657 C541.484,22.258 552.134,34.708 559.836,51.007 C567.533,67.310 571.386,86.758 571.386,109.357 C571.386,131.960 567.533,151.408 559.836,167.707 ZM511.536,58.357 C504.233,47.360 494.183,41.857 481.386,41.857 C468.786,41.857 458.834,47.360 451.536,58.357 C444.233,69.358 440.586,86.360 440.586,109.357 C440.586,132.358 444.233,149.360 451.536,160.357 C458.834,171.358 468.786,176.857 481.386,176.857 C494.183,176.857 504.233,171.358 511.536,160.357 C518.834,149.360 522.486,132.358 522.486,109.357 C522.486,86.360 518.834,69.358 511.536,58.357 ZM324.190,205.057 C310.587,213.658 295.090,217.957 277.690,217.957 C260.290,217.957 244.788,213.658 231.190,205.057 C217.587,196.460 206.937,184.010 199.240,167.707 C191.538,151.408 187.690,131.960 187.690,109.357 C187.690,86.758 191.538,67.310 199.240,51.007 C206.937,34.708 217.587,22.258 231.190,13.657 C244.788,5.060 260.290,0.757 277.690,0.757 C295.090,0.757 310.587,5.060 324.190,13.657 C337.788,22.258 348.438,34.708 356.140,51.007 C363.837,67.310 367.690,86.758 367.690,109.357 C367.690,131.960 363.837,151.408 356.140,167.707 C348.438,184.010 337.788,196.460 324.190,205.057 ZM307.840,58.357 C300.537,47.360 290.487,41.857 277.690,41.857 C265.090,41.857 255.138,47.360 247.840,58.357 C240.537,69.358 236.890,86.360 236.890,109.357 C236.890,132.358 240.537,149.360 247.840,160.357 C255.138,171.358 265.090,176.857 277.690,176.857 C290.487,176.857 300.537,171.358 307.840,160.357 C315.138,149.360 318.790,132.358 318.790,109.357 C318.790,86.360 315.138,69.358 307.840,58.357 ZM146.744,100.957 C160.844,112.760 167.894,128.557 167.894,148.357 C167.894,161.158 164.693,172.807 158.294,183.307 C151.891,193.807 142.141,202.207 129.044,208.507 C115.943,214.807 99.794,217.957 80.594,217.957 C65.791,217.957 51.241,216.007 36.944,212.107 C22.643,208.207 10.493,202.657 0.494,195.457 L19.694,158.257 C27.691,164.257 36.893,168.907 47.294,172.207 C57.691,175.507 68.393,177.157 79.394,177.157 C91.591,177.157 101.191,174.757 108.194,169.957 C115.193,165.157 118.694,158.458 118.694,149.857 C118.694,140.857 115.043,134.060 107.744,129.457 C100.441,124.858 87.794,122.557 69.794,122.557 L16.094,122.557 L26.894,4.357 L154.994,4.357 L154.994,43.357 L67.394,43.357 L64.094,83.257 L81.194,83.257 C110.791,83.257 132.644,89.158 146.744,100.957 Z"/>
<path fill="url(#PSgrad_0)"
 d="M559.836,167.707 C552.134,184.010 541.484,196.460 527.886,205.057 C514.283,213.658 498.786,217.957 481.386,217.957 C463.986,217.957 448.484,213.658 434.886,205.057 C421.283,196.460 410.633,184.010 402.936,167.707 C395.234,151.408 391.386,131.960 391.386,109.357 C391.386,86.758 395.234,67.310 402.936,51.007 C410.633,34.708 421.283,22.258 434.886,13.657 C448.484,5.060 463.986,0.757 481.386,0.757 C498.786,0.757 514.283,5.060 527.886,13.657 C541.484,22.258 552.134,34.708 559.836,51.007 C567.533,67.310 571.386,86.758 571.386,109.357 C571.386,131.960 567.533,151.408 559.836,167.707 ZM511.536,58.357 C504.233,47.360 494.183,41.857 481.386,41.857 C468.786,41.857 458.834,47.360 451.536,58.357 C444.233,69.358 440.586,86.360 440.586,109.357 C440.586,132.358 444.233,149.360 451.536,160.357 C458.834,171.358 468.786,176.857 481.386,176.857 C494.183,176.857 504.233,171.358 511.536,160.357 C518.834,149.360 522.486,132.358 522.486,109.357 C522.486,86.360 518.834,69.358 511.536,58.357 ZM324.190,205.057 C310.587,213.658 295.090,217.957 277.690,217.957 C260.290,217.957 244.788,213.658 231.190,205.057 C217.587,196.460 206.937,184.010 199.240,167.707 C191.538,151.408 187.690,131.960 187.690,109.357 C187.690,86.758 191.538,67.310 199.240,51.007 C206.937,34.708 217.587,22.258 231.190,13.657 C244.788,5.060 260.290,0.757 277.690,0.757 C295.090,0.757 310.587,5.060 324.190,13.657 C337.788,22.258 348.438,34.708 356.140,51.007 C363.837,67.310 367.690,86.758 367.690,109.357 C367.690,131.960 363.837,151.408 356.140,167.707 C348.438,184.010 337.788,196.460 324.190,205.057 ZM307.840,58.357 C300.537,47.360 290.487,41.857 277.690,41.857 C265.090,41.857 255.138,47.360 247.840,58.357 C240.537,69.358 236.890,86.360 236.890,109.357 C236.890,132.358 240.537,149.360 247.840,160.357 C255.138,171.358 265.090,176.857 277.690,176.857 C290.487,176.857 300.537,171.358 307.840,160.357 C315.138,149.360 318.790,132.358 318.790,109.357 C318.790,86.360 315.138,69.358 307.840,58.357 ZM146.744,100.957 C160.844,112.760 167.894,128.557 167.894,148.357 C167.894,161.158 164.693,172.807 158.294,183.307 C151.891,193.807 142.141,202.207 129.044,208.507 C115.943,214.807 99.794,217.957 80.594,217.957 C65.791,217.957 51.241,216.007 36.944,212.107 C22.643,208.207 10.493,202.657 0.494,195.457 L19.694,158.257 C27.691,164.257 36.893,168.907 47.294,172.207 C57.691,175.507 68.393,177.157 79.394,177.157 C91.591,177.157 101.191,174.757 108.194,169.957 C115.193,165.157 118.694,158.458 118.694,149.857 C118.694,140.857 115.043,134.060 107.744,129.457 C100.441,124.858 87.794,122.557 69.794,122.557 L16.094,122.557 L26.894,4.357 L154.994,4.357 L154.994,43.357 L67.394,43.357 L64.094,83.257 L81.194,83.257 C110.791,83.257 132.644,89.158 146.744,100.957 Z"/>
</svg>