<?xml version="1.0" encoding="utf-8"?>
<!-- Generator: Adobe Illustrator 19.2.1, SVG Export Plug-In . SVG Version: 6.00 Build 0)  -->
<svg version="1.1" id="Слой_1" xmlns="http://www.w3.org/2000/svg" xmlns:xlink="http://www.w3.org/1999/xlink" x="0px" y="0px"
	 viewBox="0 0 264.5 247.5" style="enable-background:new 0 0 264.5 247.5;" xml:space="preserve">
<style type="text/css">
	.st0{fill:#101D38;}
	.st1{fill:url(#SVGID_1_);}
	.st2{fill:url(#SVGID_2_);}
	.st3{fill:url(#SVGID_3_);}
	.st4{fill:url(#SVGID_4_);}
	.st5{fill:url(#SVGID_5_);}
	.st6{fill:url(#SVGID_6_);}
	.st7{fill:url(#SVGID_7_);}
</style>
<g>
	<linearGradient id="SVGID_1_" gradientUnits="userSpaceOnUse" x1="191.0875" y1="122.7135" x2="259.9992" y2="122.7135">
		<stop  offset="0" style="stop-color:#152FB0"/>
		<stop  offset="1" style="stop-color:#123783"/>
	</linearGradient>
	<path class="st1" d="M231.9,154.5c-3.5,3.5-9.2,3.5-12.7,0l-25.5-25.5c-3.5-3.5-3.5-9.2,0-12.7l25.5-25.5c3.5-3.5,9.2-3.5,12.7,0
		l25.5,25.5c3.5,3.5,3.5,9.2,0,12.7L231.9,154.5z"/>
	<linearGradient id="SVGID_2_" gradientUnits="userSpaceOnUse" x1="102.8518" y1="52.142" x2="205.1802" y2="52.142">
		<stop  offset="0" style="stop-color:#152FB0"/>
		<stop  offset="1" style="stop-color:#123783"/>
	</linearGradient>
	<path class="st2" d="M159.2,95.3l-48.3-48c-10.6-10.5-10.6-27.6-0.1-38.2C121.2-1.4,138.3-1.5,148.9,9l48.3,48
		c10.6,10.5,10.6,27.6,0.1,38.2C186.8,105.7,169.7,105.8,159.2,95.3z"/>
	<linearGradient id="SVGID_3_" gradientUnits="userSpaceOnUse" x1="48.2165" y1="75.3016" x2="117.1283" y2="75.3016">
		<stop  offset="0" style="stop-color:#152FB0"/>
		<stop  offset="1" style="stop-color:#123783"/>
	</linearGradient>
	<path class="st3" d="M114.5,81.7L89,107.1c-3.5,3.5-9.2,3.5-12.7,0L50.9,81.7c-3.5-3.5-3.5-9.2,0-12.7l25.5-25.5
		c3.5-3.5,9.2-3.5,12.7,0l25.5,25.5C118,72.5,118,78.2,114.5,81.7z"/>
	<linearGradient id="SVGID_4_" gradientUnits="userSpaceOnUse" x1="0.4867" y1="123.0315" x2="69.3983" y2="123.0315">
		<stop  offset="0" style="stop-color:#152FB0"/>
		<stop  offset="1" style="stop-color:#123783"/>
	</linearGradient>
	<path class="st4" d="M66.8,129.4l-25.5,25.5c-3.5,3.5-9.2,3.5-12.7,0L3.1,129.4c-3.5-3.5-3.5-9.2,0-12.7l25.5-25.5
		c3.5-3.5,9.2-3.5,12.7,0l25.5,25.5C70.3,120.2,70.3,125.9,66.8,129.4z"/>
	<linearGradient id="SVGID_5_" gradientUnits="userSpaceOnUse" x1="55.8359" y1="195.4864" x2="157.9687" y2="195.4864">
		<stop  offset="0" style="stop-color:#152FB0"/>
		<stop  offset="1" style="stop-color:#123783"/>
	</linearGradient>
	<path class="st5" d="M63.7,152.6C74.3,142,91.4,142,102,152.5l48,47.6c10.6,10.5,10.7,27.6,0.1,38.2l0,0
		c-10.5,10.6-27.7,10.7-38.3,0.1l-48-47.6C53.2,180.4,53.2,163.3,63.7,152.6L63.7,152.6z"/>
	<linearGradient id="SVGID_6_" gradientUnits="userSpaceOnUse" x1="95.9458" y1="123.0315" x2="164.8575" y2="123.0315">
		<stop  offset="0" style="stop-color:#152FB0"/>
		<stop  offset="1" style="stop-color:#123783"/>
	</linearGradient>
	<path class="st6" d="M124,154.9l-25.5-25.5c-3.5-3.5-3.5-9.2,0-12.7L124,91.2c3.5-3.5,9.2-3.5,12.7,0l25.5,25.5
		c3.5,3.5,3.5,9.2,0,12.7l-25.5,25.5C133.3,158.4,127.6,158.4,124,154.9z"/>
	<linearGradient id="SVGID_7_" gradientUnits="userSpaceOnUse" x1="143.3578" y1="170.4434" x2="212.2692" y2="170.4434">
		<stop  offset="0" style="stop-color:#152FB0"/>
		<stop  offset="1" style="stop-color:#123783"/>
	</linearGradient>
	<path class="st7" d="M146,164.1l25.5-25.5c3.5-3.5,9.2-3.5,12.7,0l25.5,25.5c3.5,3.5,3.5,9.2,0,12.7l-25.5,25.5
		c-3.5,3.5-9.2,3.5-12.7,0L146,176.8C142.5,173.3,142.5,167.6,146,164.1z"/>
</g>
</svg>
