<?xml version="1.0" encoding="utf-8"?>
<!-- Generator: Adobe Illustrator 19.2.1, SVG Export Plug-In . SVG Version: 6.00 Build 0)  -->
<svg version="1.1" id="Слой_1" xmlns="http://www.w3.org/2000/svg" xmlns:xlink="http://www.w3.org/1999/xlink" x="0px" y="0px"
	 viewBox="0 0 1107.5 247.5" style="enable-background:new 0 0 1107.5 247.5;" xml:space="preserve">
<style type="text/css">
	.st0{fill:#101D38;}
	.st1{fill:url(#SVGID_1_);}
	.st2{fill:url(#SVGID_2_);}
	.st3{fill:url(#SVGID_3_);}
	.st4{fill:url(#SVGID_4_);}
	.st5{fill:url(#SVGID_5_);}
	.st6{fill:url(#SVGID_6_);}
	.st7{fill:url(#SVGID_7_);}
</style>
<polygon class="st0" points="1077.9,215.2 1077.9,151.1 1045.9,204.9 1032.7,204.9 1001.5,150.9 1001.5,215.2 973.4,215.2 
	973.4,108 1005.9,108 1040.1,170 1076.5,108 1105.6,108 1106,215.2 "/>
<path class="st0" d="M959,130c-5-8.4-12-14.9-20.9-19.6c-8.9-4.7-19-7.1-30.3-7.1c-11.3,0-21.4,2.4-30.3,7.1c-9,4.7-16,11.3-21,19.6
	c-5,8.4-7.6,17.9-7.6,28.5c0,10.6,2.5,20.1,7.6,28.5c5,8.4,12,14.9,21,19.6c9,4.7,19.1,7.1,30.3,7.1c11.3,0,21.4-2.4,30.3-7.1
	c8.9-4.7,15.9-11.3,20.9-19.6c5-8.4,7.6-17.9,7.6-28.5C966.6,147.8,964.1,138.3,959,130z M927.5,180.1c-5.1,5.4-11.6,8.1-19.6,8.1
	c-8,0-14.5-2.7-19.7-8.1c-5.2-5.4-7.8-12.6-7.8-21.6c0-9,2.6-16.2,7.8-21.6c5.2-5.4,11.7-8.1,19.7-8.1c8,0,14.5,2.7,19.6,8.1
	c5.1,5.4,7.7,12.6,7.7,21.6C935.1,167.5,932.6,174.7,927.5,180.1z"/>
<polygon class="st0" points="865.1,215.2 828.5,215.2 799.8,174.6 783.7,174.6 783.7,215.2 752.6,215.2 752.6,108 783.7,108 
	783.7,149.7 800.4,149.7 829.5,108 862.5,108 825.1,159.4 "/>
<path class="st0" d="M746.3,162c0-11.2-2.4-21-7.3-29.4c-4.8-8.4-11.5-14.9-20-19.4c-8.5-4.5-18-6.8-28.5-6.8
	c-10.7,0-20.5,2.4-29.2,7.1c-8.7,4.7-15.5,11.3-20.5,19.7c-5,8.4-7.5,17.9-7.5,28.4c0,10.6,2.5,20.1,7.6,28.5
	c5,8.4,12.2,14.9,21.5,19.6c9.3,4.7,20,7.1,32,7.1c19.4,0,34.1-5.8,44.2-17.3l-16.5-17.9c-3.7,3.6-7.7,6.2-12,7.9
	c-4.3,1.7-9.3,2.5-14.8,2.5c-8.1,0-14.9-1.9-20.3-5.8c-5.4-3.9-8.9-9.1-10.3-15.7h81C746.1,165.2,746.3,162.4,746.3,162z
	 M664.4,152.3c1.1-6.9,4-12.4,8.8-16.3s10.7-6,17.7-6c6.9,0,12.7,2,17.5,6.1c4.8,4.1,7.7,9.5,8.8,16.2H664.4z"/>
<path class="st0" d="M598.2,133.5h-33.8l-1,18.9c-0.5,14.1-1.9,25.8-4,35.1c-2.1,9.3-5.6,16.6-10.3,21.9c-4.8,5.3-11.4,8-19.9,8
	c-4.5,0-9.9-0.8-16.1-2.4l1.6-25.5c2.1,0.3,3.6,0.4,4.6,0.4c4.6,0,8.1-1.7,10.4-5.1c2.3-3.4,3.9-7.7,4.7-13
	c0.8-5.2,1.4-12.2,1.8-20.8l1.6-43h91.5v107.2h-31V133.5z"/>
<polygon class="st0" points="556.4,70.8 545.4,53.8 538.7,53.8 538.7,70.8 529.1,70.8 529.1,28.8 538.7,28.8 538.7,45.7 545.7,45.7 
	556.7,28.8 567,28.8 553.2,49 567.4,70.8 "/>
<polygon class="st0" points="486.9,28.8 518.6,28.8 518.6,36.6 496.5,36.6 496.5,45.7 516,45.7 516,53.2 496.5,53.2 496.5,63 
	519.4,63 519.4,70.8 486.9,70.8 "/>
<path class="st0" d="M518.1,162c0-11.2-2.4-21-7.3-29.4c-4.8-8.4-11.5-14.9-20-19.4c-8.5-4.5-18-6.8-28.5-6.8
	c-10.7,0-20.5,2.4-29.2,7.1c-8.7,4.7-15.5,11.3-20.5,19.7c-5,8.4-7.5,17.9-7.5,28.4c0,10.6,2.5,20.1,7.6,28.5
	c5,8.4,12.2,14.9,21.5,19.6c9.3,4.7,20,7.1,32,7.1c19.4,0,34.1-5.8,44.2-17.3l-16.5-17.9c-3.7,3.6-7.7,6.2-12,7.9
	c-4.3,1.7-9.3,2.5-14.8,2.5c-8.1,0-14.9-1.9-20.3-5.8c-5.4-3.9-8.9-9.1-10.3-15.7h81C517.9,165.2,518.1,162.4,518.1,162z
	 M436.2,152.3c1.1-6.9,4-12.4,8.8-16.3c4.8-4,10.7-6,17.7-6c6.9,0,12.7,2,17.5,6.1c4.8,4.1,7.7,9.5,8.8,16.2H436.2z"/>
<path class="st0" d="M475.2,52.6c-1.4-1.7-3.3-3-5.9-3.7c1.9-0.9,3.3-2.2,4.4-3.8c1-1.6,1.6-3.4,1.6-5.5c0-3.5-1.4-6.2-4.1-8
	c-2.7-1.9-6.5-2.8-11.4-2.8h-19.5v42h20.7c5.2,0,9.3-1,12.1-3.1c2.8-2.1,4.2-5,4.2-8.7C477.2,56.4,476.5,54.3,475.2,52.6z M449.9,36
	h9c2.1,0,3.7,0.4,4.8,1.3c1.1,0.9,1.6,2.1,1.6,3.8c0,1.7-0.5,3-1.6,3.8c-1.1,0.9-2.7,1.3-4.8,1.3h-9V36z M460.6,63.6h-10.7V52.9
	h10.7c4.6,0,6.8,1.7,6.8,5.2C467.4,61.8,465.1,63.6,460.6,63.6z"/>
<rect x="400.4" y="28.8" class="st0" width="9.7" height="42"/>
<polygon class="st0" points="384.4,70.8 374.2,56.2 364.3,70.8 353.1,70.8 368.7,49.4 353.9,28.8 364.9,28.8 374.6,42.4 384.1,28.8 
	394.5,28.8 379.9,49 395.6,70.8 "/>
<polygon class="st0" points="340.2,70.8 330.1,56.2 320.1,70.8 309,70.8 324.5,49.4 309.7,28.8 320.8,28.8 330.4,42.4 339.9,28.8 
	350.4,28.8 335.7,49 351.4,70.8 "/>
<polygon class="st0" points="408.5,133.5 372.3,133.5 372.3,215.2 341.4,215.2 341.4,133.5 305.2,133.5 305.2,108 408.5,108 "/>
<g>
	<linearGradient id="SVGID_1_" gradientUnits="userSpaceOnUse" x1="191.0875" y1="122.7135" x2="259.9992" y2="122.7135">
		<stop  offset="0" style="stop-color:#152FB0"/>
		<stop  offset="1" style="stop-color:#123783"/>
	</linearGradient>
	<path class="st1" d="M231.9,154.5c-3.5,3.5-9.2,3.5-12.7,0l-25.5-25.5c-3.5-3.5-3.5-9.2,0-12.7l25.5-25.5c3.5-3.5,9.2-3.5,12.7,0
		l25.5,25.5c3.5,3.5,3.5,9.2,0,12.7L231.9,154.5z"/>
	<linearGradient id="SVGID_2_" gradientUnits="userSpaceOnUse" x1="102.8518" y1="52.142" x2="205.1802" y2="52.142">
		<stop  offset="0" style="stop-color:#152FB0"/>
		<stop  offset="1" style="stop-color:#123783"/>
	</linearGradient>
	<path class="st2" d="M159.2,95.3l-48.3-48c-10.6-10.5-10.6-27.6-0.1-38.2C121.2-1.4,138.3-1.5,148.9,9l48.3,48
		c10.6,10.5,10.6,27.6,0.1,38.2C186.8,105.7,169.7,105.8,159.2,95.3z"/>
	<linearGradient id="SVGID_3_" gradientUnits="userSpaceOnUse" x1="48.2165" y1="75.3016" x2="117.1283" y2="75.3016">
		<stop  offset="0" style="stop-color:#152FB0"/>
		<stop  offset="1" style="stop-color:#123783"/>
	</linearGradient>
	<path class="st3" d="M114.5,81.7L89,107.1c-3.5,3.5-9.2,3.5-12.7,0L50.9,81.7c-3.5-3.5-3.5-9.2,0-12.7l25.5-25.5
		c3.5-3.5,9.2-3.5,12.7,0l25.5,25.5C118,72.5,118,78.2,114.5,81.7z"/>
	<linearGradient id="SVGID_4_" gradientUnits="userSpaceOnUse" x1="0.4867" y1="123.0315" x2="69.3983" y2="123.0315">
		<stop  offset="0" style="stop-color:#152FB0"/>
		<stop  offset="1" style="stop-color:#123783"/>
	</linearGradient>
	<path class="st4" d="M66.8,129.4l-25.5,25.5c-3.5,3.5-9.2,3.5-12.7,0L3.1,129.4c-3.5-3.5-3.5-9.2,0-12.7l25.5-25.5
		c3.5-3.5,9.2-3.5,12.7,0l25.5,25.5C70.3,120.2,70.3,125.9,66.8,129.4z"/>
	<linearGradient id="SVGID_5_" gradientUnits="userSpaceOnUse" x1="55.8359" y1="195.4864" x2="157.9687" y2="195.4864">
		<stop  offset="0" style="stop-color:#152FB0"/>
		<stop  offset="1" style="stop-color:#123783"/>
	</linearGradient>
	<path class="st5" d="M63.7,152.6C74.3,142,91.4,142,102,152.5l48,47.6c10.6,10.5,10.7,27.6,0.1,38.2l0,0
		c-10.5,10.6-27.7,10.7-38.3,0.1l-48-47.6C53.2,180.4,53.2,163.3,63.7,152.6L63.7,152.6z"/>
	<linearGradient id="SVGID_6_" gradientUnits="userSpaceOnUse" x1="95.9458" y1="123.0315" x2="164.8575" y2="123.0315">
		<stop  offset="0" style="stop-color:#152FB0"/>
		<stop  offset="1" style="stop-color:#123783"/>
	</linearGradient>
	<path class="st6" d="M124,154.9l-25.5-25.5c-3.5-3.5-3.5-9.2,0-12.7L124,91.2c3.5-3.5,9.2-3.5,12.7,0l25.5,25.5
		c3.5,3.5,3.5,9.2,0,12.7l-25.5,25.5C133.3,158.4,127.6,158.4,124,154.9z"/>
	<linearGradient id="SVGID_7_" gradientUnits="userSpaceOnUse" x1="143.3578" y1="170.4434" x2="212.2692" y2="170.4434">
		<stop  offset="0" style="stop-color:#152FB0"/>
		<stop  offset="1" style="stop-color:#123783"/>
	</linearGradient>
	<path class="st7" d="M146,164.1l25.5-25.5c3.5-3.5,9.2-3.5,12.7,0l25.5,25.5c3.5,3.5,3.5,9.2,0,12.7l-25.5,25.5
		c-3.5,3.5-9.2,3.5-12.7,0L146,176.8C142.5,173.3,142.5,167.6,146,164.1z"/>
</g>
</svg>
