<?xml version="1.0" encoding="UTF-8" standalone="no"?>
<svg width="134px" height="162px" viewBox="0 0 134 162" version="1.1" xmlns="http://www.w3.org/2000/svg" xmlns:xlink="http://www.w3.org/1999/xlink" xmlns:sketch="http://www.bohemiancoding.com/sketch/ns">
    <!-- Generator: Sketch 3.3.3 (12081) - http://www.bohemiancoding.com/sketch -->
    <title>mosmetro_vert_sign</title>
    <desc>Created with Sketch.</desc>
    <defs></defs>
    <g id="Page-1" stroke="none" stroke-width="1" fill="none" fill-rule="evenodd" sketch:type="MSPage">
        <g id="mosmetro_vert_sign" sketch:type="MSLayerGroup" fill="#D9232E">
            <path d="M133.3,67.1 C133.3,30.4 103.6,0.6 66.8,0.6 C30.1,0.6 0.3,30.4 0.3,67.1 C0.3,85.5 7.8,102.1 19.8,114.1 C20.8,115.1 22.1,115.7 23.6,115.7 C26.6,115.7 29,113.3 29,110.3 C29,108.8 28.4,107.4 27.4,106.4 C17.4,96.4 11.2,82.4 11.2,67.1 C11.2,36.4 36.1,11.4 66.8,11.4 C97.5,11.4 122.5,36.4 122.5,67.1 C122.5,82.5 116.3,96.4 106.2,106.5 L59.2,153.5 L66.8,161.2 L113.9,114.1 C125.9,102.1 133.3,85.5 133.3,67.1 L133.3,67.1 Z" id="Shape" sketch:type="MSShapeGroup"></path>
            <path d="M97.6,79.9 L81,38 L67,62.5 L53,38 L36.4,79.9 L31.6,79.9 L31.6,86.2 L56.6,86.2 L56.6,79.9 L52.9,79.9 L56.5,69.5 L67,86.7 L77.5,69.5 L81.1,79.9 L77.4,79.9 L77.4,86.2 L102.5,86.2 L102.5,79.9 L97.6,79.9 Z" id="Shape" sketch:type="MSShapeGroup"></path>
        </g>
    </g>
</svg>