<?xml version="1.0" encoding="utf-8"?>
<!-- Generator: Adobe Illustrator 19.2.1, SVG Export Plug-In . SVG Version: 6.00 Build 0)  -->
<svg version="1.1"
	 id="svg8" inkscape:version="0.92.3 (2405546, 2018-03-11)" sodipodi:docname="eaton.svg" xmlns:cc="http://creativecommons.org/ns#" xmlns:dc="http://purl.org/dc/elements/1.1/" xmlns:inkscape="http://www.inkscape.org/namespaces/inkscape" xmlns:rdf="http://www.w3.org/1999/02/22-rdf-syntax-ns#" xmlns:sodipodi="http://sodipodi.sourceforge.net/DTD/sodipodi-0.dtd" xmlns:svg="http://www.w3.org/2000/svg"
	 xmlns="http://www.w3.org/2000/svg" xmlns:xlink="http://www.w3.org/1999/xlink" x="0px" y="0px" viewBox="0 0 615 160"
	 style="enable-background:new 0 0 615 160;" xml:space="preserve">
<style type="text/css">
	.st0{fill:#FFFFFF;}
</style>
<sodipodi:namedview  bordercolor="#666666" borderopacity="1.0" fit-margin-bottom="0.5" fit-margin-left="0.5" fit-margin-right="0.5" fit-margin-top="0.5" id="base" inkscape:current-layer="layer1" inkscape:cx="79.010967" inkscape:cy="12.666744" inkscape:document-units="mm" inkscape:pageopacity="0" inkscape:pageshadow="2" inkscape:window-height="1001" inkscape:window-maximized="1" inkscape:window-width="1920" inkscape:window-x="-9" inkscape:window-y="-9" inkscape:zoom="1.979899" pagecolor="#00ffff" showgrid="false" units="px">
	</sodipodi:namedview>
<path id="path674-5" inkscape:connector-curvature="0" class="st0" d="M217,36.8l12.4,44.7h-25.8L217,36.8z M194.4,112.9L183.1,150
	h66.1l-10.6-37.1H194.4z M367.1,10h-127v39.9h40.1V150h64.5c-4-2.5-31.3-24.2-31.3-64.7C313.3,51.6,333.7,18.6,367.1,10
	 M389.1,114.1c15,0,27-12.4,27-28.2c0-15.6-11.3-29.8-26.5-29.8c-15.3,0-27.2,14.1-27.2,29.8C362.4,101.7,373.6,114.1,389.1,114.1
	 M522.2,98l-25.8-88h-66v140h41.2V62.2h0.3l25.5,87.8h66.6V10h-41.6v88H522.2z M130.8,150l11.9-39.3H98.5V98.9h47.8l11.4-37.6H98.5
	V49.9h62.4L173,10H50.9v140L130.8,150z"/>
</svg>
